<?xml version="1.0" encoding="UTF-8" standalone="no"?><!DOCTYPE svg PUBLIC "-//W3C//DTD SVG 1.1//EN" "http://www.w3.org/Graphics/SVG/1.1/DTD/svg11.dtd"><svg width="100%" height="100%" viewBox="0 0 128 128" version="1.1" xmlns="http://www.w3.org/2000/svg" xmlns:xlink="http://www.w3.org/1999/xlink" xml:space="preserve" xmlns:serif="http://www.serif.com/" style="fill-rule:evenodd;clip-rule:evenodd;stroke-linejoin:round;stroke-miterlimit:2;"><path d="M48.2,111.65l4.5,-9l0.344,-1.434l0.156,-1.266l0.006,-1.041l-0.106,-0.759l0,-1.5l1.2,0.9l4.725,3.762l1.912,1.708l1.163,1.23l1.9,2.6l1.9,-2.6l1.289,-1.328l2.048,-1.797l4.463,-3.575l0.588,-0.45l0.512,-0.45l0,1.5l0.038,1.8l0.173,1.266l0.389,1.434l4.5,9l0.225,0.712l-0.225,0.788l-0.587,0.587l-0.813,0.213l-28.9,-0l-0.812,-0.213l-0.588,-0.587l-0.225,-0.713l0.225,-0.787Zm-34.137,-79.142l0.387,-0.246l0.463,-0.001l0.387,0.289l9.9,14.7l-1.3,3.025l-1.062,3.387l-0.838,4.288l-0.2,1.4l-0.2,-0l-7.4,-7.2l-0.3,-0.7l0,-18.5l0.163,-0.442Zm-4.863,20.492l0.431,-0.106l0.469,0.156l11.4,8.9l0,2.9l0.5,6.5l0.2,1.1l-7.9,-2l-0.1,-0l-0.462,-0.275l-0.238,-0.425l-4.6,-15.9l0.019,-0.519l0.281,-0.331Zm1.9,21.05l11.6,0.9l0.7,2.712l0.988,2.815l1.512,3.273l0.4,0.8l-6.1,1.7l-0.575,0l-0.425,-0.3l-8.7,-10.7l-0.112,-0.787l0.712,-0.413Zm16.4,12.5l0.3,0.6l2.612,3.75l2.988,3.45l0,0.1l0.7,0.7l-4.4,2.6l-0.5,0.15l-0.5,-0.15l-9.5,-6.2l-0.325,-0.687l0.425,-0.613l8.2,-3.7Zm4.4,16.5l4,-6.2l9.5,6l-1.1,3.3l-0.487,0.488l-0.713,0.112l-10.9,-2.7l-0.462,-0.437l0.062,-0.663l0.1,0.1Zm-6.114,-41.498l0.553,-3.727l0.912,-3.634l1.262,-3.516l1.604,-3.376l1.938,-3.211l2.264,-3.025l2.581,-2.813l1.6,-1.6l0,9.7l-2.087,3.225l-1.713,3.375l-1.108,2.978l-0.779,3.072l-0.461,3.147l-0.152,3.203l0.152,3.203l0.461,3.147l0.779,3.072l1.108,2.978l1.33,2.773l1.583,2.615l1.826,2.445l2.061,2.267l3,2.638l3.3,2.262l0.7,0.4l-2.1,6.3l-1.1,-0.6l-4.321,-2.945l-3.862,-3.682l-3.368,-4.227l-2.836,-4.584l-2.27,-4.747l-1.666,-4.72l-1.027,-4.502l-0.35,-4.093l0.186,-3.798Zm24.614,-9.102l6.475,5.85l5.425,5.85l1.8,2.1l1.8,-2.1l5.425,-5.887l6.475,-5.813l2.6,-2l-1.6,2.8l-0.2,0l-3,6.2l-3.3,9.5l-1.255,6.373l-0.307,5.765l0.648,5.37l1.614,5.192l0.2,0.5l-0.4,0.3l-3.587,2.813l-2.783,2.376l-1.143,1.099l-0.787,0.912l-0.5,0.7l-0.5,-0.7l-1.93,-1.969l-2.782,-2.381l-3.588,-2.85l-0.4,-0.3l0.2,-0.5l1.67,-5.192l0.668,-5.37l-0.327,-5.765l-1.311,-6.373l-3.3,-9.462l-3,-6.238l-1.6,-2.8l2.6,2Zm0.492,-29.71l1.072,-2.109l1.412,-1.874l1.712,-1.607l1.968,-1.307l2.186,-0.974l2.362,-0.609l2.496,-0.21l2.496,0.21l2.362,0.609l2.186,0.974l1.969,1.307l1.711,1.607l1.412,1.874l1.072,2.109l0.692,2.31l0.094,0.856l-0.019,0.894l-0.131,0.894l-0.244,0.856l-0.598,1.311l-0.74,1.227l-0.87,1.132l-0.992,1.03l-5.163,3.85l-4.337,2.65l-0.9,0.2l-0.9,-0.2l-4.337,-2.612l-5.163,-3.888l-1.034,-1.014l-0.866,-1.098l-0.716,-1.193l-0.584,-1.295l-0.244,-0.9l-0.131,-0.9l-0.019,-0.9l0.094,-0.9l0.692,-2.31Zm-3.692,6.71l0.099,0.259l0.226,0.708l0.85,2.346l1.413,2.889l0.928,1.387l1.084,1.211l5.425,4.175l4.975,3.125l0.872,0.338l0.928,0.112l0.928,-0.112l0.872,-0.338l5.013,-3.125l5.387,-4.175l1.116,-1.211l0.953,-1.387l1.431,-2.889l1.1,-3.313l0.3,-1.4l1.9,2.7l0,13l-0.4,0.2l-2.898,1.638l-3.038,2.204l-5.851,5.146l-6.313,6.512l-0.5,0.6l-0.5,-0.6l-6.312,-6.587l-5.852,-5.127l-3.038,-2.181l-2.898,-1.605l-0.4,-0.2l0,-13l1.9,-2.7l0.3,1.4Zm65.5,3.1l0.388,-0.289l0.462,0.002l0.388,0.245l0.162,0.442l0,18.5l-0.3,0.7l-7.4,7.2l-0.2,-0l-0.2,-1.4l-0.837,-4.288l-1.063,-3.387l-1.3,-3.025l9.9,-14.7Zm-6.7,38.8l0.5,-6.5l0,-2.9l11.4,-8.9l0.469,-0.156l0.431,0.106l0.281,0.331l0.019,0.519l-4.6,15.9l-0.237,0.425l-0.463,0.275l-0.1,-0l-7.9,2l0.2,-1.1Zm-3.9,12.4l1.513,-3.273l0.987,-2.815l0.7,-2.712l11.6,-0.9l0.713,0.412l-0.113,0.788l-8.7,10.7l-0.425,0.3l-0.575,-0l-6.1,-1.7l0.4,-0.8Zm-7.5,10.7l0,-0.1l2.987,-3.45l2.613,-3.75l0.3,-0.6l8.2,3.7l0.425,0.613l-0.325,0.687l-9.5,6.2l-0.5,0.15l-0.5,-0.15l-4.4,-2.6l0.7,-0.7Zm-2.5,2.4l4,6.2l0.1,-0.1l0.063,0.662l-0.463,0.438l-10.9,2.7l-0.712,-0.113l-0.488,-0.487l-1.1,-3.3l9.5,-6Zm-11.9,-4.1l3.3,-2.262l3,-2.638l2.061,-2.267l1.827,-2.446l1.582,-2.614l1.33,-2.773l1.108,-2.978l0.78,-3.072l0.46,-3.147l0.152,-3.203l-0.152,-3.203l-0.46,-3.147l-0.78,-3.072l-1.108,-2.978l-1.712,-3.375l-2.088,-3.225l0,-9.7l1.6,1.6l2.581,2.813l2.264,3.024l1.938,3.212l1.605,3.376l1.261,3.516l0.912,3.634l0.553,3.727l0.186,3.798l-0.35,5.155l-1.027,5.001l-1.666,4.785l-2.269,4.509l-2.837,4.171l-3.368,3.773l-3.862,3.313l-4.321,2.793l-1.1,0.6l-2.1,-6.3l0.7,-0.4Z" style="fill:#fff;"/></svg>