<?xml version="1.0" encoding="UTF-8" standalone="no"?><!DOCTYPE svg PUBLIC "-//W3C//DTD SVG 1.1//EN" "http://www.w3.org/Graphics/SVG/1.1/DTD/svg11.dtd"><svg width="100%" height="100%" viewBox="0 0 64 64" version="1.1" xmlns="http://www.w3.org/2000/svg" xmlns:xlink="http://www.w3.org/1999/xlink" xml:space="preserve" xmlns:serif="http://www.serif.com/" style="fill-rule:evenodd;clip-rule:evenodd;stroke-linejoin:round;stroke-miterlimit:2;"><path d="M10.926,28.968L11.151,28.236L11.45,27.58L11.816,27.011L12.722,26.178L13.813,25.821L15.03,26.024L15.669,26.362L16.318,26.872L16.046,22.615L16.385,18.652L16.788,16.805L17.347,15.058L18.065,13.422L18.943,11.906L19.982,10.518L21.184,9.268L22.55,8.166L24.081,7.219L25.78,6.438L27.647,5.831L29.684,5.409L31.893,5.179L32.171,5.179L34.355,5.433L36.371,5.877L38.22,6.502L39.904,7.297L41.424,8.255L42.782,9.366L43.979,10.621L45.016,12.01L45.896,13.525L46.619,15.156L47.6,18.731L47.972,22.66L47.746,26.872L47.746,27.011L48.37,26.501L48.988,26.163L50.173,25.96L51.244,26.317L52.143,27.15L52.511,27.719L52.815,28.375L53.047,29.107L53.201,29.905L53.27,30.759L53.246,31.658L53.122,32.591L52.891,33.547L52.389,34.626L51.748,35.659L50.214,37.51L48.628,38.944L47.921,39.456L47.328,39.805L46.824,40.309L46.633,40.917L46.911,46.341L46.79,47.088L46.355,47.731L37.455,56.631L36.912,57.144L36.328,57.589L35.71,57.966L35.063,58.274L34.392,58.513L33.703,58.684L33.001,58.787L32.293,58.821L31.582,58.787L30.876,58.684L30.178,58.513L29.496,58.274L28.834,57.966L28.198,57.589L27.593,57.144L27.026,56.631L17.848,47.453L17.413,46.81L17.291,46.062L17.43,40.778L17.604,40.274L16.735,39.666L15.436,38.825L13.85,37.423L12.316,35.579L11.674,34.527L11.173,33.408L10.917,32.452L10.772,31.519L10.73,30.62L10.784,29.766L10.926,28.968Z" style="fill:#5835d8;"/><path d="M25.588,30.994L25.34,31.357L24.277,32.048L22.993,32.296L21.65,32.048L20.594,31.357L19.903,30.301L19.655,28.958L19.903,27.615L20.594,26.559L21.65,25.868L22.993,25.621L24.336,25.868L25.392,26.559L26.083,27.615L26.33,28.958L26.096,30.134L35.575,35.215L35.665,34.972L36.083,34.279L36.623,33.677L37.271,33.193L38.011,32.852L38.568,32.699L38.568,17.998L38.046,17.868L37.107,17.229L36.482,16.304L36.312,15.15L36.586,14.061L37.225,13.155L38.15,12.549L39.304,12.38L40.393,12.653L41.299,13.292L41.905,14.218L42.075,15.371L41.801,16.46L41.162,17.366L40.236,17.972L39.958,18.015L39.958,32.657L40.38,32.727L41.123,33.008L41.807,33.426L42.411,33.966L42.915,34.614L43.296,35.355L43.513,36.152L43.55,36.963L43.42,37.76L43.139,38.518L42.721,39.212L42.181,39.813L41.533,40.298L40.793,40.639L40.001,40.857L39.204,40.893L38.424,40.764L37.784,40.522L29.392,47.745L29.559,48.885L29.285,49.973L28.647,50.88L27.721,51.486L26.567,51.655L25.479,51.381L24.573,50.743L23.966,49.817L23.797,48.722L24.071,47.627L24.709,46.688L25.635,46.062L26.73,45.893L27.825,46.167L28.627,46.712L36.679,39.781L36.393,39.524L35.889,38.877L35.508,38.136L35.291,37.339L35.254,36.528L35.307,36.204L25.588,30.994Z" style="fill:#fff;"/></svg>