<?xml version="1.0" encoding="UTF-8" standalone="no"?><!DOCTYPE svg PUBLIC "-//W3C//DTD SVG 1.1//EN" "http://www.w3.org/Graphics/SVG/1.1/DTD/svg11.dtd"><svg width="100%" height="100%" viewBox="0 0 64 64" version="1.1" xmlns="http://www.w3.org/2000/svg" xmlns:xlink="http://www.w3.org/1999/xlink" xml:space="preserve" xmlns:serif="http://www.serif.com/" style="fill-rule:evenodd;clip-rule:evenodd;stroke-linejoin:round;stroke-miterlimit:2;"><path d="M5.101,25.858L6.398,24.995L8.011,24.681L23.826,24.681L23.826,8.688L24.14,7.075L25.003,5.779L26.3,4.915L27.913,4.601L36.087,4.601L37.012,4.701L37.886,5.001L38.661,5.501L39.286,6.201L36.348,7.914L35.106,8.946L34.044,10.177L33.181,11.665L32.539,13.472L32.138,15.658L32,18.284L32.07,19.697L32.274,21.066L32.607,22.384L33.061,23.645L33.629,24.843L34.305,25.971L35.082,27.022L35.954,27.991L36.913,28.869L37.952,29.652L39.066,30.332L40.246,30.903L41.487,31.359L42.782,31.692L44.123,31.897L45.505,31.967L47.343,31.836L49.112,31.456L50.793,30.842L52.369,30.012L53.819,28.982L55.126,27.769L56.27,26.389L57.233,24.859L58.352,25.445L59.254,26.347L59.857,27.483L60.076,28.768L60.076,36.942L59.762,38.555L58.899,39.852L57.602,40.716L55.989,41.029L40.174,41.029L40.174,57.022L39.86,58.635L38.997,59.932L37.7,60.795L36.087,61.109L27.913,61.109L26.3,60.795L25.003,59.932L24.14,58.635L23.826,57.022L23.826,41.029L8.011,41.029L6.398,40.716L5.101,39.852L4.238,38.555L3.924,36.942L3.924,28.768L4.238,27.155L5.101,25.858Z" style="fill:#ffe000;"/><path d="M38.955,16.332L39.308,15.285L39.827,14.272L40.529,13.308L42.404,10.587L43.795,8.066L44.753,5.812L45.327,3.89L45.661,2.891L46.394,3.89L47.993,8L49.342,10.562L51.191,13.308L51.794,14.247L52.28,15.219L52.666,16.257L52.968,17.395L53.035,18.489L52.968,19.617L52.768,20.744L52.435,21.838L51.944,22.84L51.302,23.726L49.77,25.214L48.834,25.783L47.882,26.169L46.896,26.389L45.86,26.458L44.8,26.389L43.772,26.169L42.812,25.783L41.951,25.214L41.085,24.512L40.352,23.726L39.752,22.84L39.286,21.838L38.977,20.769L38.819,19.683L38.753,17.395L38.955,16.332Z" style="fill:#fff;"/></svg>