<?xml version="1.0" encoding="UTF-8" standalone="no"?><!DOCTYPE svg PUBLIC "-//W3C//DTD SVG 1.1//EN" "http://www.w3.org/Graphics/SVG/1.1/DTD/svg11.dtd"><svg width="100%" height="100%" viewBox="0 0 64 64" version="1.1" xmlns="http://www.w3.org/2000/svg" xmlns:xlink="http://www.w3.org/1999/xlink" xml:space="preserve" xmlns:serif="http://www.serif.com/" style="fill-rule:evenodd;clip-rule:evenodd;stroke-linejoin:round;stroke-miterlimit:2;"><path d="M56.888,5.072L57.486,4.559L58.224,4.534L58.85,4.926L59.114,5.665L59.114,19.611L58.984,20.724L58.52,21.837L53.031,31.036L52.808,32L53.031,32.964L58.52,42.163L58.984,43.165L59.114,44.389L59.114,58.335L58.85,59.074L58.224,59.466L57.486,59.441L56.888,58.928L56.888,58.78L40.716,33.113L40.383,31.944L40.716,30.887L56.888,5.072Z" style="fill:#ff7d1d;fill-opacity:0.5;"/><path d="M36.859,7.445L37.434,7.017L38.12,7.019L38.695,7.383L38.936,8.039L38.936,20.798L38.806,21.911L38.343,23.024L33.447,31.332L33.224,32.223L33.447,33.113L38.343,41.421L38.806,42.423L38.936,43.647L38.936,56.406L38.695,57.062L38.12,57.426L37.434,57.429L36.859,57L36.859,56.703L22.171,33.113L21.837,32.074L22.171,31.036L36.859,7.445Z" style="fill:#ff7d1d;fill-opacity:0.8;"/><path d="M5.109,31.036L18.313,9.819L19.37,9.374L20.094,10.264L20.094,21.54L19.964,22.634L19.5,23.617L15.198,31.036L14.975,31.796L15.198,32.668L19.5,40.086L19.964,41.069L20.094,42.163L20.094,53.439L19.37,54.385L18.313,53.884L18.313,54.032L5.109,32.964L4.886,32L5.109,31.036Z" style="fill:#ff7d1d;"/></svg>