<?xml version="1.0" encoding="UTF-8" standalone="no"?><!DOCTYPE svg PUBLIC "-//W3C//DTD SVG 1.1//EN" "http://www.w3.org/Graphics/SVG/1.1/DTD/svg11.dtd"><svg width="100%" height="100%" viewBox="0 0 64 64" version="1.1" xmlns="http://www.w3.org/2000/svg" xmlns:xlink="http://www.w3.org/1999/xlink" xml:space="preserve" xmlns:serif="http://www.serif.com/" style="fill-rule:evenodd;clip-rule:evenodd;stroke-linejoin:round;stroke-miterlimit:2;"><g><path d="M16.871,25.404l7.565,-7.314l15.128,0l7.565,7.314l-10.182,19.55l-9.894,-0l-10.182,-19.55Z" style="fill:#fff;"/><path d="M26.079,55.635l-3.879,0l-18.388,-33.713l13.788,-13.557l6.747,-0l2.362,5.067l-7.064,-0l-10.06,9.345l15.435,27.791l3.141,0l-2.082,5.067Zm13.574,-47.27l6.747,-0l13.788,13.557l-18.388,33.713l-3.879,0l-2.082,-5.067l3.141,0l15.435,-27.791l-10.06,-9.345l-7.064,-0l2.362,-5.067Z" style="fill:#fff;"/></g></svg>