<?xml version="1.0" encoding="UTF-8" standalone="no"?><!DOCTYPE svg PUBLIC "-//W3C//DTD SVG 1.1//EN" "http://www.w3.org/Graphics/SVG/1.1/DTD/svg11.dtd"><svg width="100%" height="100%" viewBox="0 0 38 39" version="1.1" xmlns="http://www.w3.org/2000/svg" xmlns:xlink="http://www.w3.org/1999/xlink" xml:space="preserve" xmlns:serif="http://www.serif.com/" style="fill-rule:evenodd;clip-rule:evenodd;stroke-linejoin:round;stroke-miterlimit:2;"><path d="M5.848,6.558l1.773,-1.554l1.966,-1.316l2.131,-1.059l2.265,-0.781l2.37,-0.483l2.447,-0.165l1.89,0.097l1.838,0.284l1.776,0.461l1.705,0.63l1.625,0.788l1.534,0.936l2.757,2.279l2.279,2.757l0.936,1.534l0.788,1.625l0.63,1.705l0.461,1.776l0.284,1.838l0.097,1.89l0,0.1l-0.096,1.906l-0.281,1.85l-0.457,1.785l-0.624,1.711l-0.781,1.626l-0.93,1.534l-1.069,1.431l-1.199,1.319l-1.32,1.2l-1.431,1.069l-1.534,0.93l-1.626,0.781l-1.711,0.624l-1.785,0.457l-1.85,0.281l-1.906,0.096l-5.645,-0.242l-1.581,-0.301l-0.573,-0.195l-0.464,-0.225l-0.703,-0.536l-0.582,-0.653l-0.674,-0.767l-0.978,-0.881l-2.6,2.6l-0.513,0.112l-0.287,-0.412l-1.2,-8.5l0.15,-0.413l0.45,-0.187l8.6,1.2l0.413,0.325l-0.113,0.475l-2.5,2.5l2.039,1.255l2.199,0.907l2.329,0.552l2.433,0.186l1.574,-0.08l1.528,-0.233l1.476,-0.38l1.414,-0.52l1.346,-0.65l1.27,-0.774l1.186,-0.89l1.094,-0.998l0.994,-1.099l0.887,-1.192l0.771,-1.278l0.649,-1.356l0.518,-1.426l0.38,-1.489l0.233,-1.544l0.08,-1.591l-0.08,-1.591l-0.233,-1.544l-0.38,-1.489l-0.518,-1.426l-0.649,-1.356l-0.771,-1.278l-0.887,-1.192l-0.994,-1.099l-1.094,-0.998l-1.186,-0.89l-1.27,-0.774l-1.346,-0.65l-1.414,-0.52l-1.476,-0.38l-1.528,-0.233l-1.574,-0.08l-2.901,0.134l-2.383,0.393l-1.948,0.638l-0.835,0.408l-0.758,0.464l-1.321,1.093l-1.132,1.3l-2.022,3.17l-2.7,-1.6l1.298,-1.97l1.55,-1.772Z" style="fill:#5cb4e5;"/><path d="M12.097,18.981l0.903,-0.281l11.2,-0l0.903,0.281l0.547,0.694l0.097,0.881l-0.447,0.844l-5.6,5.6l-0.513,0.338l-0.587,0.112l-0.588,-0.112l-0.512,-0.338l-5.6,-5.6l-0.447,-0.844l0.097,-0.881l0.547,-0.694Z" style="fill:#fff;"/><path d="M14.527,11.166l0.573,-0.166l7,0l0.573,0.166l0.339,0.409l0.058,0.522l-0.27,0.503l-3.5,3.4l-0.7,0.3l-0.7,-0.3l-3.5,-3.4l-0.27,-0.503l0.057,-0.522l0.34,-0.409Z" style="fill:#fff;fill-opacity:0.5;"/></svg>