<?xml version="1.0" encoding="UTF-8" standalone="no"?><!DOCTYPE svg PUBLIC "-//W3C//DTD SVG 1.1//EN" "http://www.w3.org/Graphics/SVG/1.1/DTD/svg11.dtd"><svg width="100%" height="100%" viewBox="0 0 64 64" version="1.1" xmlns="http://www.w3.org/2000/svg" xmlns:xlink="http://www.w3.org/1999/xlink" xml:space="preserve" xmlns:serif="http://www.serif.com/" style="fill-rule:evenodd;clip-rule:evenodd;stroke-linejoin:round;stroke-miterlimit:2;"><path d="M28.302,19.866L30.856,13.48L31.016,15.555L30.058,22.101L27.344,25.614L28.302,19.866ZM22.554,25.773L22.075,30.723L20.798,38.546L20.079,42.198L19.765,43.867L19.84,44.772L20.329,44.688L20.997,43.974L22.394,42.218L24.35,39.584L26.545,36.47L29.08,32.12L31.016,28.009L32.173,25.354L32.947,23.945L33.57,23.059L44.646,11.963L52.048,5.053L54.545,3.078L55.603,2.783L55.655,3.625L55.485,4.669L54.665,7.094L52.41,11.404L45.065,20.505L42.251,25.394L40.755,28.488L47.78,24.017L22.873,51.318L8.345,61.217L22.554,25.773ZM27.947,49.647L31.734,47.686L37.242,44.932L44.926,44.593L50.107,44.461L51.743,44.489L52.25,44.613L44.586,48.724L39.048,51.348L36.874,52.226L35.486,52.596L34.401,52.572L33.029,52.408L29.958,51.817L27.336,51.136L26.226,50.68L26.699,50.341L27.947,49.647Z" style="fill:#da3331;"/></svg>