<?xml version="1.0" encoding="UTF-8" standalone="no"?><!DOCTYPE svg PUBLIC "-//W3C//DTD SVG 1.1//EN" "http://www.w3.org/Graphics/SVG/1.1/DTD/svg11.dtd"><svg width="100%" height="100%" viewBox="0 0 64 64" version="1.1" xmlns="http://www.w3.org/2000/svg" xmlns:xlink="http://www.w3.org/1999/xlink" xml:space="preserve" xmlns:serif="http://www.serif.com/" style="fill-rule:evenodd;clip-rule:evenodd;stroke-linejoin:round;stroke-miterlimit:2;"><path d="M4.399,24.716l0.951,-0.415l16.603,-2.006l0.831,-0.33l0.569,-0.689l7.036,-15.169l0.684,-0.77l0.931,-0.257l0.932,0.257l0.684,0.77l7.036,15.169l0.569,0.689l0.831,0.33l16.602,2.006l0.943,0.408l0.532,0.805l0.045,0.967l-0.517,0.892l-12.24,11.381l-0.48,0.748l-0.062,0.891l3.216,16.411l-0.101,1.024l-0.602,0.753l-0.902,0.339l-1.006,-0.221l-14.612,-8.134l-0.868,-0.227l-0.867,0.227l-14.612,8.134l-1.006,0.221l-0.902,-0.339l-0.602,-0.753l-0.101,-1.024l3.215,-16.411l-0.055,-0.891l-0.486,-0.748l-12.24,-11.381l-0.526,-0.89l0.042,-0.963l0.535,-0.804Z" style="fill:#ff39cc;"/></svg>