<?xml version="1.0" encoding="UTF-8" standalone="no"?><!DOCTYPE svg PUBLIC "-//W3C//DTD SVG 1.1//EN" "http://www.w3.org/Graphics/SVG/1.1/DTD/svg11.dtd"><svg width="100%" height="100%" viewBox="0 0 64 64" version="1.1" xmlns="http://www.w3.org/2000/svg" xmlns:xlink="http://www.w3.org/1999/xlink" xml:space="preserve" xmlns:serif="http://www.serif.com/" style="fill-rule:evenodd;clip-rule:evenodd;stroke-linejoin:round;stroke-miterlimit:2;"><path d="M44.253,49.915L45.177,49.36L45.733,48.839L46.295,48.113L46.818,47.149L47.26,45.913L55.222,17.458L55.498,16.499L55.533,15.716L55.222,15.099L54.06,14.38L52.568,13.772L58.023,13.772L59.129,14.325L59.889,15.016L60.234,15.983L51.536,47.977L50.854,49.01L50.105,49.719L49.177,50.042L43.869,50.042L44.253,49.915ZM12.464,15.836L13.146,14.804L13.895,14.094L14.823,13.772L20.131,13.772L19.747,13.899L18.823,14.454L18.267,14.974L17.705,15.7L17.182,16.664L16.74,17.9L8.778,46.356L8.502,47.314L8.467,48.097L8.778,48.715L9.94,49.433L11.432,50.042L5.977,50.042L4.871,49.489L4.111,48.798L3.766,47.83L12.464,15.836ZM24.462,14.914L25.146,14.219L26.176,13.772L45.048,13.772L45.048,13.919L46.357,14.048L47.225,14.479L47.555,15.394L40.183,48.567L39.87,49.139L39.374,49.625L38.561,50.042L37.306,50.169L34.822,50.228L27.89,50.207L18.215,50.042L17.311,49.231L16.784,48.3L16.74,47.093L23.965,15.836L24.462,14.914ZM22.785,34.708L28.388,34.708L26.913,39.721L27.356,40.458L32.369,40.458L32.958,39.573L34.285,34.855L39.593,34.855L40.496,34.616L40.625,34.266L41.657,29.99L41.418,29.345L41.067,29.253L35.76,29.253L36.423,26.912L37.087,24.24L36.644,23.503L31.779,23.503L31.189,23.945L29.715,29.105L23.965,29.105L23.522,29.695L22.933,31.667L22.527,33.116L22.343,33.971L22.785,34.708Z" style="fill:#fff;"/></svg>