<?xml version="1.0" encoding="UTF-8" standalone="no"?><!DOCTYPE svg PUBLIC "-//W3C//DTD SVG 1.1//EN" "http://www.w3.org/Graphics/SVG/1.1/DTD/svg11.dtd"><svg width="100%" height="100%" viewBox="0 0 64 64" version="1.1" xmlns="http://www.w3.org/2000/svg" xmlns:xlink="http://www.w3.org/1999/xlink" xml:space="preserve" xmlns:serif="http://www.serif.com/" style="fill-rule:evenodd;clip-rule:evenodd;stroke-linejoin:round;stroke-miterlimit:2;"><path d="M40.736,33.4L40.806,33.252L40.903,33.12L41.023,33.007L41.164,32.919L41.323,32.859L52.221,29.853L52.38,29.825L52.538,29.828L52.691,29.86L52.835,29.92L52.967,30.005L53.083,30.113L53.18,30.243L53.255,30.393L53.724,32.178L53.773,32.375L53.774,32.574L53.728,32.769L53.63,32.953L51.822,36.241L51.704,36.386L51.564,36.499L51.406,36.578L51.235,36.617L42.286,37.063L42.12,37.072L41.961,37.05L41.81,36.998L41.672,36.919L41.551,36.818L41.45,36.697L41.373,36.558L41.323,36.406L40.712,33.892L40.687,33.725L40.696,33.559L40.736,33.4ZM38.434,26.564L38.503,26.425L38.648,26.271L39.174,25.909L41.203,24.917L49.45,21.421L49.45,21.397L49.583,21.369L49.733,21.379L49.9,21.423L50.08,21.498L50.473,21.726L50.897,22.031L52.574,23.44L52.681,23.544L52.776,23.658L52.856,23.783L52.923,23.916L52.975,24.056L53.013,24.2L53.036,24.348L53.043,24.497L52.832,27.692L52.714,27.827L52.574,27.947L52.416,28.045L52.245,28.114L41.464,31.52L41.198,31.587L40.932,31.614L40.669,31.601L40.413,31.549L40.168,31.46L39.938,31.335L39.727,31.175L39.538,30.98L38.317,29.5L38.251,29.389L38.204,29.243L38.157,28.87L38.199,27.944L38.434,26.564ZM42.075,5.402L42.219,5.357L42.395,5.352L42.599,5.383L42.826,5.445L43.336,5.652L43.895,5.942L45.997,7.328L46.132,7.449L46.255,7.582L46.363,7.725L46.455,7.877L46.53,8.037L46.585,8.203L46.619,8.375L46.631,8.549L46.596,10.461L46.486,11.287L46.444,11.442L46.396,11.568L46.279,11.72L40.806,14.867L36.978,8.103L42.075,5.402ZM44.095,20.998L44.188,20.851L44.257,20.694L44.301,20.53L44.321,20.364L44.315,20.197L44.283,20.033L44.225,19.876L44.142,19.729L41.605,16.018L46.843,13.035L47.041,13.019L47.352,13.098L48.208,13.464L50.084,14.492L50.244,14.599L50.39,14.726L50.518,14.87L50.627,15.029L50.715,15.2L50.781,15.38L50.821,15.568L50.835,15.76L50.865,17.46L50.849,18.181L50.825,18.431L50.789,18.579L50.295,19.518L50.208,19.667L50.093,19.797L49.955,19.904L49.802,19.988L41.581,23.863L44.095,20.998ZM14.823,41.038L18.364,38.318L19.809,37.065L20.795,36.03L25.211,39.224L20.654,32.131L20.607,25.366L20.748,15.807L25.951,12.748L33.055,9.019L33.291,8.949L33.521,8.904L33.747,8.883L33.968,8.885L34.184,8.909L34.395,8.954L34.803,9.101L35.191,9.315L35.559,9.588L36.235,10.27L37.346,11.906L38.129,13.388L42.239,19.8L42.31,19.944L42.345,20.093L42.345,20.242L42.31,20.387L41.954,21.177L41.367,22.143L41.014,22.595L40.635,22.977L40.439,23.128L40.241,23.248L40.042,23.33L39.843,23.37L38.704,23.367L37.404,23.206L36.161,22.868L35.629,22.628L35.397,22.488L35.193,22.337L35.001,22.156L34.806,21.93L34.414,21.369L33.687,20.044L32.938,18.367L32.895,18.566L32.827,18.775L32.715,19.022L32.55,19.281L32.445,19.407L32.324,19.526L32.184,19.636L32.025,19.732L31.847,19.811L31.646,19.87L30.513,20.17L30.19,20.293L31.764,21.641L32.905,22.919L33.323,23.591L33.465,23.92L33.549,24.239L33.267,36.476L34.747,30.252L34.806,30.047L34.884,29.885L34.978,29.763L35.086,29.679L35.209,29.631L35.344,29.616L35.49,29.631L35.646,29.675L35.811,29.745L35.983,29.839L36.344,30.088L37.098,30.766L38.449,32.31L39.045,33.094L39.664,35.666L40.164,37.533L40.382,38.219L40.473,38.451L40.548,38.59L40.571,38.519L40.724,38.595L41.028,38.648L41.996,38.696L44.764,38.625L48.675,38.378L48.143,39.319L46.502,41.532L45.243,42.831L43.681,44.106L41.805,45.243L39.608,46.129L38.424,46.591L37.237,47.227L34.901,48.908L30.683,53.12L26.479,58.648L24.659,58.004L20.272,55.73L17.618,53.822L14.925,51.316L12.394,48.146L10.226,44.25L14.823,41.038Z" style="fill:#fff;"/></svg>