<?xml version="1.0" encoding="UTF-8" standalone="no"?><!DOCTYPE svg PUBLIC "-//W3C//DTD SVG 1.1//EN" "http://www.w3.org/Graphics/SVG/1.1/DTD/svg11.dtd"><svg width="100%" height="100%" viewBox="0 0 64 64" version="1.1" xmlns="http://www.w3.org/2000/svg" xmlns:xlink="http://www.w3.org/1999/xlink" xml:space="preserve" xmlns:serif="http://www.serif.com/" style="fill-rule:evenodd;clip-rule:evenodd;stroke-linejoin:round;stroke-miterlimit:2;"><path d="M5.669,4.418L6.411,4.443L7.013,4.959L23.298,30.805L23.634,31.981L23.298,33.046L7.013,59.041L6.411,59.557L5.669,59.582L5.039,59.188L4.772,58.443L4.772,44.4L4.847,43.279L5.37,42.159L10.898,32.896L11.122,31.925L10.898,30.954L5.37,21.692L4.903,20.683L4.772,19.451L4.772,5.557L5.039,4.812L5.669,4.418Z" style="fill:#36c861;fill-opacity:0.5;"/><path d="M25.912,6.322L26.603,6.32L27.182,6.752L27.182,7.051L41.972,30.805L42.308,31.851L41.972,32.896L27.182,56.65L26.603,57.082L25.912,57.08L25.333,56.713L25.09,56.053L25.09,43.205L25.221,42.084L25.688,40.964L30.618,32.598L30.842,31.701L30.618,30.805L25.688,22.439L25.221,21.43L25.09,20.198L25.09,7.35L25.333,6.689L25.912,6.322Z" style="fill:#36c861;fill-opacity:0.8;"/><path d="M45.707,9.889L45.707,9.74L59.003,30.954L59.228,31.925L59.003,32.896L45.707,54.26L44.643,54.708L43.914,53.812L43.914,42.458L44.045,41.356L44.512,40.366L48.844,32.896L49.069,32.131L48.844,31.253L44.512,23.783L44.045,22.793L43.914,21.692L43.914,10.337L44.643,9.385L45.707,9.889Z" style="fill:#36c861;"/></svg>