<?xml version="1.0" encoding="UTF-8" standalone="no"?><!DOCTYPE svg PUBLIC "-//W3C//DTD SVG 1.1//EN" "http://www.w3.org/Graphics/SVG/1.1/DTD/svg11.dtd"><svg width="100%" height="100%" viewBox="0 0 64 64" version="1.1" xmlns="http://www.w3.org/2000/svg" xmlns:xlink="http://www.w3.org/1999/xlink" xml:space="preserve" xmlns:serif="http://www.serif.com/" style="fill-rule:evenodd;clip-rule:evenodd;stroke-linejoin:round;stroke-miterlimit:2;"><path d="M5.346,18.44L5.346,18.58L9.554,18.58L9.554,14.652L10.116,14.091L12.781,14.091L14.464,15.774L40.277,15.774L40.838,16.335L40.838,21.385L44.766,21.385L44.766,16.335L45.327,15.774L50.938,15.774L51.359,15.914L56.971,21.526L56.971,24.752L56.41,25.734L54.866,26.716L59.075,41.306L59.04,42.621L58.601,43.851L58.162,44.488L57.532,45.094L52.482,49.022L52.113,49.23L51.114,49.635L50.427,49.809L49.641,49.909L48.776,49.894L47.852,49.723L37.191,46.496L36.489,46.005L35.77,45.313L34.946,44.252L33.263,41.867L32.002,41.882L28.651,41.674L23.853,40.861L18.252,39.061L15.663,37.671L13.638,36.091L12.109,34.423L11.01,32.766L10.272,31.221L9.828,29.888L9.612,28.867L9.554,28.259L9.554,23.349L5.486,23.349L4.925,22.788L4.925,19.141L5.346,18.44ZM39.014,39.061L41.82,42.288L42.1,42.428L49.255,44.532L49.816,44.532L53.464,41.867L53.464,41.025L47.291,33.029L46.449,33.029L39.014,38.22L39.014,39.061ZM26.427,21.911L25.78,22.304L25.175,22.755L24.618,23.262L24.111,23.819L23.659,24.424L23.266,25.071L22.936,25.758L22.673,26.481L22.48,27.234L22.361,28.016L22.32,28.821L22.361,29.625L22.48,30.407L22.673,31.16L22.936,31.883L23.266,32.57L23.659,33.217L24.111,33.822L24.618,34.379L25.175,34.886L25.78,35.338L26.427,35.73L27.114,36.061L27.836,36.324L28.59,36.517L29.371,36.636L30.176,36.677L30.981,36.636L31.762,36.517L32.516,36.324L33.238,36.061L33.925,35.73L34.573,35.338L35.178,34.886L35.735,34.379L36.242,33.822L36.693,33.217L37.086,32.57L37.416,31.883L37.68,31.16L37.873,30.407L37.992,29.625L38.032,28.821L37.992,28.016L37.873,27.234L37.68,26.481L37.416,25.758L37.086,25.071L36.693,24.424L36.242,23.819L35.735,23.262L35.178,22.755L34.573,22.304L33.925,21.911L33.238,21.581L32.516,21.317L31.762,21.124L30.981,21.005L30.176,20.965L29.371,21.005L28.59,21.124L27.836,21.317L27.114,21.581L26.427,21.911ZM25.366,27.691L25.652,26.77L26.105,25.936L26.705,25.209L27.432,24.609L28.266,24.156L29.187,23.87L30.176,23.77L31.165,23.87L32.087,24.156L32.921,24.609L33.647,25.209L34.247,25.936L34.7,26.77L34.986,27.691L35.086,28.68L34.986,29.669L34.7,30.591L34.247,31.425L33.647,32.151L32.921,32.751L32.087,33.204L31.165,33.49L30.176,33.59L29.187,33.49L28.266,33.204L27.432,32.751L26.705,32.151L26.105,31.425L25.652,30.591L25.366,29.669L25.266,28.68L25.366,27.691Z" style="fill:#da3232;"/></svg>