<?xml version="1.0" encoding="UTF-8" standalone="no"?><!DOCTYPE svg PUBLIC "-//W3C//DTD SVG 1.1//EN" "http://www.w3.org/Graphics/SVG/1.1/DTD/svg11.dtd"><svg width="100%" height="100%" viewBox="0 0 64 64" version="1.1" xmlns="http://www.w3.org/2000/svg" xmlns:xlink="http://www.w3.org/1999/xlink" xml:space="preserve" xmlns:serif="http://www.serif.com/" style="fill-rule:evenodd;clip-rule:evenodd;stroke-linejoin:round;stroke-miterlimit:2;"><path d="M19.523,27.283L27.131,27.283L27.131,19.979L27.283,19.523L27.739,19.37L35.804,19.37L36.261,19.523L36.413,19.979L36.413,27.283L43.717,27.283L44.173,27.435L44.325,27.892L44.325,35.956L44.173,36.413L43.717,36.565L36.413,36.565L36.413,43.869L36.261,44.325L35.804,44.477L27.739,44.477L27.283,44.325L27.131,43.869L27.131,36.565L19.827,36.565L19.37,36.413L19.218,35.956L19.218,27.587L19.523,27.283Z" style="fill:#fff;"/><path d="M20.436,14.045L23.032,12.623L25.799,11.572L28.738,10.921L31.848,10.697L34.958,10.921L37.896,11.572L40.664,12.623L43.26,14.045L59.541,4.306L49.803,20.588L51.225,23.184L52.276,25.952L52.927,28.89L53.151,32L53.303,32L53.159,33.714L52.78,35.581L51.629,39.304L49.955,43.412L59.694,59.694L43.412,49.955L40.816,51.377L38.048,52.428L35.11,53.079L32,53.303L28.89,53.079L25.952,52.428L23.184,51.377L20.588,49.955L4.306,59.694L14.045,43.412L12.623,40.816L11.572,38.048L10.921,35.11L10.697,32L10.921,28.89L11.572,25.952L12.623,23.184L14.045,20.588L4.306,4.306L20.436,14.045ZM13.629,34.677L14.178,37.212L15.041,39.575L16.175,41.738L22.262,41.738L22.262,47.825L24.489,48.959L26.845,49.822L29.344,50.371L32,50.564L34.677,50.371L37.212,49.822L39.575,48.959L41.738,47.825L41.738,41.738L47.825,41.738L48.959,39.511L49.822,37.155L50.371,34.656L50.564,32L50.371,29.323L49.822,26.788L48.959,24.425L47.825,22.262L41.738,22.262L41.738,16.175L39.511,15.041L37.155,14.178L34.656,13.629L32,13.436L29.323,13.629L26.788,14.178L24.425,15.041L22.262,16.175L22.262,22.262L16.175,22.262L15.041,24.489L14.178,26.845L13.629,29.344L13.436,32L13.629,34.677Z" style="fill:#ffe000;"/></svg>